<?xml version="1.0" standalone="yes"?>
<svg xmlns="http://www.w3.org/2000/svg" width="820" height="978">
<path style="fill:#345699; stroke:none;" d="M117 42L117 267L117 328C117 333.694 119.363 346.069 116.5 351C113.591 356.009 100.973 354.366 96 355.333C75.9852 359.225 55.1726 359.751 35 362.833C30.2737 363.555 11.8305 362.866 11 368C9.27013 378.694 11 391.146 11 402L11 474L11 696L11 777C11 783.006 7.90149 800.969 11.5 805.667C14.358 809.398 31.3291 808.546 36 809C54.3787 810.787 72.6203 814.213 91 816C97.0779 816.591 110.09 815.55 115 819.333C120.497 823.568 117 846.264 117 853L117 954L808 954L808 441L808 298L808 258C808 253.621 809.478 245.956 807.5 242C804.484 235.968 796.609 230.892 792 226C779.071 212.275 764.935 199.731 752 186C720.044 152.078 685.933 119.933 653 87C642.019 76.0186 631.449 64.4814 620 54C616.222 50.5411 612.617 44.8082 608 42.5C599.15 38.0751 578.966 42 569 42L470 42L117 42M238 833L238 834L205 835L205 865L574 865L680 865C692.981 865 714.196 861.03 726 866L726 835L465 835L401 835L380.5 833.833L380 822L380 790L382 777.167L413 777L484 777L726 777L726 747L465 747L401 747L380.5 745.833L380 734L380 702L382 689.167L413 689L484 689L726 689C726 683.081 729.04 664.374 724.833 660.167C721.358 656.691 707.778 659 703 659L639 659L449 659L399 659C394.927 659 384.495 660.896 381.167 658.5C378.534 656.605 380 647.958 380 645C380 631.912 377.914 616.895 380 604C380.861 598.674 395.637 601 400 601L465 601L653 601L704 601C708.98 601 719.688 603.045 724 600.5C728.982 597.56 726 576.492 726 571L465 571L401 571L380.5 569.833L380 558L380 526L382 513.167L413 513L484 513L726 513L726 483L465 483L401 483L380.5 481.833L380 470L380 438L382 425.167L413 425L484 425L726 425L726 394L380 394L380 352L381.167 337.5L405 337L472 337L726 337L726 306L327 306L237 306C230.772 306 210.576 302.758 206.167 307.167C201.857 311.477 205 330.921 205 337L238 338C235.195 340.04 228.77 339.633 225 340C213.646 341.104 202.362 342.895 191 344C174.301 345.624 157.707 348.376 141 350C137.667 350.324 128.993 353.478 126.167 351.5C123.632 349.726 125 341.783 125 339L125 303L125 155L125 78C125 72.4146 122.17 55.163 126.167 51.1667C129.852 47.4818 144.898 50 150 50L220 50L497 50L574 50C579.585 50 596.837 47.1703 600.833 51.1667C603.092 53.4257 602 59.0536 602 62L602 90L602 205C602 215.399 601 225.549 601 236C601 239.024 599.768 245.411 602.167 247.667C604.63 249.982 609.925 249 613 249L641 249L754 249L788 249C790.682 249 797.749 247.734 799.5 250.167C802.559 254.415 800 268.737 800 274L800 340L800 592L800 858L800 923C800 927.022 802.2 942.076 798.833 944.5C796.591 946.114 790.675 945 788 945L759 945L649 945L263 945L162 945L136 945C133.527 945 128.25 946 126.167 944.5C122.536 941.886 125 924.415 125 920L125 847C125 842.323 122.361 823.24 126.167 820.5C128.322 818.948 131.725 820.779 134 821C141.662 821.745 149.44 822.197 157 823.667C182.229 828.572 212.314 833 238 833M792 239C781.383 243.47 762.674 240 751 240L654 240L623 240C620.124 240 613.566 241.227 611.167 239.5C608.84 237.825 610 231.541 610 229L610 197L610 101C610 89.0646 606.43 69.8542 611 59C616.864 60.6976 621.71 67.7104 626 72L659 105L750 196C763.095 209.095 782.783 223.08 792 239M205 130L205 160L600 160L600 130L205 130M205 218L205 249L600 249L600 218L205 218M131 498L149.333 581L157 617L158 617L174 530L178 508L180.333 498.5L206 498L213.167 499.167L221.333 534L240 617L241 617C242.049 577.122 260.95 537.89 262 498L292 498L270.667 612L259 674L235 674L226.167 673.5L223.667 666L218.667 644L204.667 582L199 555L198 555L180.667 631L171 674L137 674L129.333 632L112.667 542L105 498L131 498M248 838L247 839L248 838z"/>
</svg>
